<svg width="100" height="100" viewBox="0 0 100 100" xmlns="http://www.w3.org/2000/svg"><path d="M11 18a7 7 0 1 0 0-14 7 7 0 0 0 0 14zm48 25a7 7 0 1 0 0-14 7 7 0 0 0 0 14zm-43-7a3 3 0 1 0 0-6 3 3 0 0 0 0 6zm63 31a3 3 0 1 0 0-6 3 3 0 0 0 0 6zM34 90a3 3 0 1 0 0-6 3 3 0 0 0 0 6zm56-76a3 3 0 1 0 0-6 3 3 0 0 0 0 6zM12 86a4 4 0 1 0 0-8 4 4 0 0 0 0 8zm28-65a4 4 0 1 0 0-8 4 4 0 0 0 0 8zm23-11a5 5 0 1 0 0-10 5 5 0 0 0 0 10zm-6 60a4 4 0 1 0 0-8 4 4 0 0 0 0 8zm29 22a5 5 0 1 0 0-10 5 5 0 0 0 0 10zM32 63a5 5 0 1 0 0-10 5 5 0 0 0 0 10zm57-13a5 5 0 1 0 0-10 5 5 0 0 0 0 10zm-9-21a2 2 0 1 0 0-4 2 2 0 0 0 0 4zM60 91a2 2 0 1 0 0-4 2 2 0 0 0 0 4zM35 41a2 2 0 1 0 0-4 2 2 0 0 0 0 4zM12 60a2 2 0 1 0 0-4 2 2 0 0 0 0 4z" fill="#000" fill-opacity="1" fill-rule="evenodd"/></svg>
