<svg width="36" height="36" viewBox="0 0 36 36" xmlns="http://www.w3.org/2000/svg"><path d="M36 0H0v36h36V0zM15.126 2H2v13.126c.367.094.714.24 1.032.428L15.554 3.032A3.976 3.976 0 0 1 15.126 2zM18 4.874V18H4.874a3.976 3.976 0 0 0-.428-1.032L16.968 4.446c.318.188.665.334 1.032.428zM22.874 2h11.712L20 16.586V4.874A4.007 4.007 0 0 0 22.874 2zm10.252 18H20v13.126c.367.094.714.24 1.032.428l12.522-12.522A3.976 3.976 0 0 1 33.126 20zM36 22.874V36H22.874a3.976 3.976 0 0 0-.428-1.032l12.522-12.522c.318.188.665.334 1.032.428zm0-7.748V3.414L21.414 18h11.712A4.007 4.007 0 0 1 36 15.126zm-18 18V21.414L3.414 36h11.712A4.007 4.007 0 0 1 18 33.126zM4.874 20h11.712L2 34.586V22.874A4.007 4.007 0 0 0 4.874 20z" fill="#000" fill-opacity="1" fill-rule="evenodd"/></svg>
