<svg width="180" height="180" viewBox="0 0 180 180" xmlns="http://www.w3.org/2000/svg"><path d="M81.28 88H68.413l19.298 19.298L81.279 88zm2.107 0h13.226L90 107.838 83.387 88zm15.334 0h12.865l-19.298 19.298L98.721 88zm-32.928-2.207L73.586 78h32.828l.5.5 7.293 7.293L115.414 87l-24.707 24.707-.707.707L64.586 87l1.207-1.207zm2.621.207L74 80.414 79.586 86H68.414zm16 0L90 80.414 95.586 86H84.414zm16 0L106 80.414 111.586 86h-11.172zm-8-6h11.172L98 85.586 92.414 80zM82 85.586L87.586 80H76.414L82 85.586zM17.414 0L.707 16.707 0 17.414V0h17.414zM4.28 0L0 12.838V0h4.28zm10.307 0L2.288 12.298 6.388 0h8.198zM180 17.414L162.586 0H180v17.414zM165.414 0l12.298 12.298L173.612 0h-8.198zM180 12.838L175.72 0H180v12.838zM0 163H16.414l.5.5 7.293 7.293L25.414 172l-8 8H0v-17zm0 10h6.613l-2.334 7H0v-7zm14.586 7l7-7H8.72l-2.334 7h8.199zM0 165.414L5.586 171H0v-5.586zM10.414 171L16 165.414 21.586 171H10.414zm-8-6h11.172L8 170.586 2.414 165zM180 163H163.586l-7.793 7.793-1.207 1.207 8 8H180v-17zm-14.586 17l-7-7h12.865l2.334 7h-8.199zM180 173h-6.613l2.334 7H180v-7zm-21.586-2l5.586-5.586 5.586 5.586h-11.172zM180 165.414L174.414 171H180v-5.586zm-8 5.172l5.586-5.586h-11.172l5.586 5.586zM152.933 25.653l1.414 1.414-33.941 33.942-1.415-1.415 33.942-33.94zm1.414 127.28l-1.414 1.414-33.942-33.941 1.415-1.415 33.94 33.942zm-127.28 1.414l-1.414-1.414 33.941-33.942 1.415 1.415-33.942 33.94zm-1.414-127.28l1.414-1.414L61.01 59.594l-1.415 1.415-33.94-33.942zM0 85a4 4 0 1 1 0 8v-8zm180 0a4 4 0 1 0 0 8v-8zM94 0a4 4 0 1 1-8 0h8zm0 180a4 4 0 1 0-8 0h8z" fill="#000" fill-opacity="1" fill-rule="evenodd"/></svg>
