<svg width="80" height="88" viewBox="0 0 80 88" xmlns="http://www.w3.org/2000/svg"><path d="M22 21.91V26h-2.001C10.06 26 2 34.059 2 44c0 9.943 8.058 18 17.999 18H22v4.09c8.012.722 14.785 5.738 18 12.73 3.212-6.991 9.983-12.008 18-12.73V62h2.001C69.94 62 78 53.941 78 44c0-9.943-8.058-18-17.999-18H58v-4.09c-8.012-.722-14.785-5.738-18-12.73-3.212 6.991-9.983 12.008-18 12.73zM54 58v4.696a25.999 25.999 0 0 0-14 8.69 25.999 25.999 0 0 0-14-8.69V58h-5.993C12.271 58 6 51.734 6 44c0-7.732 6.275-14 14.007-14H26v-4.696a25.999 25.999 0 0 0 14-8.69 25.999 25.999 0 0 0 14 8.69V30h5.993C67.729 30 74 36.266 74 44c0 7.732-6.275 14-14.007 14H54zM42 88c0-9.941 8.061-18 17.999-18H62v-4.09c8.016-.722 14.787-5.738 18-12.73v7.434a25.999 25.999 0 0 1-14 8.69V74h-5.993C52.275 74 46 80.268 46 88h-4zm-4 0c0-9.943-8.058-18-17.999-18H18v-4.09c-8.012-.722-14.785-5.738-18-12.73v7.434a25.999 25.999 0 0 0 14 8.69V74h5.993C27.729 74 34 80.266 34 88h4zm4-88c0 9.943 8.058 18 17.999 18H62v4.09c8.012.722 14.785 5.738 18 12.73v-7.434a25.999 25.999 0 0 0-14-8.69V14h-5.993C52.271 14 46 7.734 46 0h-4zM0 34.82c3.213-6.992 9.984-12.008 18-12.73V18h2.001C29.94 18 38 9.941 38 0h-4c0 7.732-6.275 14-14.007 14H14v4.696a25.999 25.999 0 0 0-14 8.69v7.433z" fill="#000" fill-opacity="1" fill-rule="evenodd"/></svg>
