<svg width="60" height="60" viewBox="0 0 60 60" xmlns="http://www.w3.org/2000/svg"><path d="M54.627 0l.829.828-1.414 1.415L51.799 0h2.828zM5.373 0l-.829.828 1.414 1.415L8.201 0H5.373zM48.97 0l3.656 3.657-1.414 1.414L46.143 0h2.828zM11.029 0L7.373 3.657 8.787 5.07 13.857 0H11.03zm32.285 0l6.485 6.485L48.385 7.9 40.485 0h2.829zM16.686 0l-6.485 6.485L11.615 7.9 19.515 0h-2.829zm20.97 0l9.315 9.314-1.415 1.414L34.828 0h2.829zM22.344 0L13.03 9.314l1.415 1.414L25.172 0h-2.829zM32 0l12.142 12.142-1.414 1.414L30 .828 17.272 13.556l-1.414-1.414L28 0h4zM.284 0l28 28-1.414 1.414L0 2.544V0h.284zM0 5.373l25.456 25.455-1.414 1.415L0 8.2V5.373zm0 5.656l22.627 22.628-1.414 1.414L0 13.858v-2.829zm0 5.657l19.799 19.8-1.414 1.413L0 19.515v-2.829zm0 5.657l16.97 16.97-1.414 1.415L0 25.172v-2.829zM0 28l14.142 14.142-1.414 1.414L0 30.828V28zm0 5.657L11.314 44.97l-1.415 1.414L0 36.485v-2.828zm0 5.657l8.485 8.485-1.414 1.414L0 42.143v-2.83zm0 5.657l5.657 5.656-1.414 1.415L0 47.799v-2.828zm0 5.656l2.828 2.829-1.414 1.414L0 53.456v-2.829zM54.627 60L30 35.373 5.373 60H8.2L30 38.201 51.799 60h2.828zm-5.656 0L30 41.03 11.03 60h2.828L30 43.858 46.142 60h2.829zm-5.657 0L30 46.686 16.686 60h2.829L30 49.515 40.485 60h2.829zm-5.657 0L30 52.343 22.343 60h2.829L30 55.172 34.828 60h2.829zM32 60l-2-2-2 2h4zM59.716 0l-28 28 1.414 1.414L60 2.544V0h-.284zM60 5.373L34.544 30.828l1.414 1.415L60 8.2V5.373zm0 5.656L37.373 33.657l1.414 1.414L60 13.858v-2.829zm0 5.657l-19.799 19.8 1.414 1.413L60 19.515v-2.829zm0 5.657l-16.97 16.97 1.414 1.415L60 25.172v-2.829zM60 28L45.858 42.142l1.414 1.414L60 30.828V28zm0 5.657L48.686 44.97l1.415 1.414 9.899-9.9v-2.828zm0 5.657l-8.485 8.485 1.414 1.414L60 42.143v-2.83zm0 5.657l-5.657 5.656 1.414 1.415L60 47.799v-2.828zm0 5.656l-2.828 2.829 1.414 1.414L60 53.456v-2.829zM39.9 16.385l1.414-1.414L30 3.657 18.686 14.97l1.415 1.414L30 6.485l9.9 9.9zm-2.829 2.828l1.414-1.414L30 9.314l-8.485 8.485 1.414 1.414L30 12.143l7.071 7.07zm-2.828 2.829l1.414-1.415L30 14.971l-5.657 5.656 1.414 1.415L30 17.799l4.243 4.243zm-2.829 2.828l1.414-1.414L30 20.627l-2.828 2.829 1.414 1.414L30 23.456l1.414 1.414zM56.87 59.414L58.284 58 30 29.716 1.716 58l1.414 1.414L30 32.544l26.87 26.87z" fill="#000" fill-opacity="1" fill-rule="evenodd"/></svg>
