<svg width="180" height="180" viewBox="0 0 180 180" xmlns="http://www.w3.org/2000/svg"><path d="M82.42 180h-1.415L0 98.995v-2.828L6.167 90 0 83.833v-2.828L81.005 0h2.828L90 6.167 96.167 0h2.828L180 81.005v2.828L173.833 90 180 96.167v2.828L98.995 180h-2.828L90 173.833 83.833 180H82.42zm0-1.414L1.413 97.58 8.994 90l-7.58-7.58L82.42 1.413 90 8.995l7.58-7.58 81.006 81.004-7.58 7.581 7.58 7.58-81.005 81.006-7.581-7.58-7.58 7.58zM175.196 0h-25.832a23.98 23.98 0 0 0 4.625 7.868A9.97 9.97 0 0 0 151 15c0 5.523 4.477 10 10 10a3 3 0 0 1 3 3v4h16V0h-4.803a6 6 0 1 1-10.395 0h10.395-13.685A8.985 8.985 0 0 0 161 3v4a8 8 0 0 0 0 16 5 5 0 0 1 5 5v2h4v-4h2v4h4v-4h2v4h2V0h-4.803zm-15.783 0c-.27.954-.414 1.96-.414 3v2.2a9.942 9.942 0 0 0-3.447 1.412A21.996 21.996 0 0 1 151.499 0h7.915zM180 17h-3l2.143-10H180v10zm-30.635 163a23.975 23.975 0 0 1-1.365-8c0-13.255 10.748-24 23.99-24H180v32h-30.635zm12.147 0a9.01 9.01 0 0 1 2.434-3.66l-1.345-1.48a11 11 0 0 0-3.187 5.14H151.5a21.948 21.948 0 0 1-1.499-8c0-12.15 9.84-22 22.001-22H180v30h-18.488zm13.685 0a5.998 5.998 0 0 0-5.197-3 5.998 5.998 0 0 0-5.197 3h10.394zM0 148h8.01C21.26 148 32 158.742 32 172c0 2.805-.481 5.498-1.366 8H0v-32zm0 2h7.999C20.149 150 30 159.847 30 172c0 2.822-.531 5.52-1.499 8h-7.915a11 11 0 0 0-3.187-5.14l-1.345 1.48a9.01 9.01 0 0 1 2.434 3.66H0v-30zm15.197 30A5.998 5.998 0 0 0 10 177a5.998 5.998 0 0 0-5.197 3h10.394zM0 32h16v-4a3 3 0 0 1 3-3c5.523 0 10-4.477 10-10a9.97 9.97 0 0 0-2.992-7.134A23.988 23.988 0 0 0 30.634 0H0v32zm0-2h2v-4h2v4h4v-4h2v4h4v-2a5 5 0 0 1 5-5 8 8 0 1 0 0-16V3c0-1.052-.18-2.062-.512-3H0v30zM28.501 0a21.992 21.992 0 0 1-4.052 6.613A9.942 9.942 0 0 0 21 5.2V3c0-1.04-.144-2.046-.414-3H28.5zM0 17h3L.857 7H0v10zM15.197 0A6 6 0 1 1 4.802 0h10.395zM109 115a3 3 0 0 0-3 3v4H74v-4a3 3 0 0 0-3-3c-5.523 0-10-4.477-10-10a9.97 9.97 0 0 1 2.99-7.132A23.914 23.914 0 0 1 58 82c0-13.255 10.748-24 23.99-24h16.02C111.26 58 122 68.742 122 82a23.912 23.912 0 0 1-5.992 15.866A9.97 9.97 0 0 1 119 105c0 5.523-4.477 10-10 10zm0-2a5 5 0 0 0-5 5v2h-4v-4h-2v4h-4v-4h-2v4h-4v-4h-2v4h-4v-4h-2v4h-4v-2a5 5 0 0 0-5-5 8 8 0 1 1 0-16v-4a8.977 8.977 0 0 1 2.946-6.66L72.6 84.86A10.972 10.972 0 0 0 69 93v2.2a9.942 9.942 0 0 0-3.447 1.412A21.917 21.917 0 0 1 60 82c0-12.15 9.84-22 22.001-22H98C110.149 60 120 69.847 120 82a21.92 21.92 0 0 1-5.551 14.613A9.942 9.942 0 0 0 111 95.2V93c0-3.226-1.389-6.127-3.6-8.14l-1.346 1.48A8.977 8.977 0 0 1 109 93v4a8 8 0 0 1 0 16zM90.857 97L93 107h-6l2.143-10h1.714zM80 99a6 6 0 1 0 0-12 6 6 0 0 0 0 12zm20 0a6 6 0 1 0 0-12 6 6 0 0 0 0 12z" fill="#000" fill-opacity="1" fill-rule="evenodd"/></svg>
